<?xml version="1.0" encoding="UTF-8" standalone="no"?>
<!DOCTYPE svg PUBLIC "-//W3C//DTD SVG 1.1//EN" "http://www.w3.org/Graphics/SVG/1.1/DTD/svg11.dtd">
<svg width="100%" height="100%" viewBox="0 0 2048 2048" version="1.1" xmlns="http://www.w3.org/2000/svg" xmlns:xlink="http://www.w3.org/1999/xlink" xml:space="preserve" xmlns:serif="http://www.serif.com/" style="fill-rule:evenodd;clip-rule:evenodd;stroke-linecap:round;stroke-linejoin:round;stroke-miterlimit:1.5;">
    <g transform="matrix(1,0,0,1,-102.254,697.482)">
        <g transform="matrix(1200,0,0,1200,392.854,658.068)">
            <path d="M0.367,-0.123L0.362,-0.123C0.352,-0.103 0.342,-0.085 0.331,-0.069C0.32,-0.052 0.307,-0.038 0.294,-0.026C0.28,-0.014 0.265,-0.005 0.248,0.002C0.231,0.009 0.211,0.012 0.189,0.012C0.162,0.012 0.138,0.007 0.12,-0.002C0.1,-0.011 0.085,-0.025 0.073,-0.043C0.061,-0.06 0.052,-0.081 0.047,-0.106C0.041,-0.131 0.038,-0.158 0.038,-0.188C0.038,-0.239 0.044,-0.286 0.055,-0.328C0.066,-0.369 0.082,-0.405 0.103,-0.435C0.124,-0.464 0.149,-0.487 0.178,-0.504C0.206,-0.52 0.239,-0.528 0.275,-0.528C0.316,-0.528 0.347,-0.519 0.368,-0.5C0.389,-0.481 0.403,-0.454 0.41,-0.42L0.417,-0.42L0.47,-0.74L0.616,-0.74L0.493,-0L0.347,-0L0.367,-0.123ZM0.254,-0.101C0.272,-0.101 0.288,-0.105 0.302,-0.114C0.316,-0.123 0.329,-0.135 0.341,-0.15C0.349,-0.159 0.358,-0.173 0.368,-0.19C0.378,-0.206 0.385,-0.226 0.388,-0.247L0.402,-0.33C0.407,-0.357 0.403,-0.378 0.39,-0.393C0.377,-0.408 0.354,-0.415 0.322,-0.415C0.286,-0.415 0.258,-0.405 0.239,-0.384C0.22,-0.363 0.207,-0.332 0.2,-0.293L0.19,-0.233C0.189,-0.227 0.188,-0.22 0.187,-0.213C0.186,-0.205 0.186,-0.197 0.186,-0.188C0.187,-0.163 0.192,-0.143 0.202,-0.126C0.211,-0.109 0.229,-0.101 0.254,-0.101Z" style="fill-rule:nonzero;"/>
        </g>
        <g transform="matrix(1200,0,0,1200,1112.85,658.068)">
            <path d="M-0.012,-0L0.074,-0.516L0.192,-0.516L0.177,-0.426L0.183,-0.426C0.194,-0.456 0.209,-0.481 0.228,-0.5C0.247,-0.519 0.27,-0.528 0.297,-0.528C0.324,-0.528 0.344,-0.52 0.359,-0.503C0.373,-0.486 0.378,-0.46 0.375,-0.426L0.38,-0.426C0.386,-0.441 0.393,-0.454 0.401,-0.467C0.409,-0.479 0.418,-0.49 0.428,-0.499C0.438,-0.507 0.449,-0.515 0.462,-0.52C0.474,-0.525 0.488,-0.528 0.504,-0.528C0.563,-0.528 0.592,-0.496 0.592,-0.432C0.592,-0.421 0.591,-0.408 0.59,-0.395C0.589,-0.381 0.587,-0.368 0.585,-0.356L0.526,-0L0.408,-0L0.465,-0.341C0.466,-0.347 0.467,-0.354 0.468,-0.361C0.469,-0.368 0.469,-0.375 0.469,-0.382C0.469,-0.394 0.467,-0.404 0.462,-0.411C0.456,-0.418 0.449,-0.421 0.44,-0.421C0.431,-0.421 0.423,-0.419 0.416,-0.415C0.408,-0.41 0.4,-0.402 0.393,-0.389C0.387,-0.379 0.382,-0.368 0.379,-0.357C0.375,-0.345 0.371,-0.33 0.368,-0.312L0.316,-0L0.198,-0L0.255,-0.341C0.256,-0.347 0.257,-0.354 0.258,-0.361C0.259,-0.368 0.259,-0.376 0.259,-0.383C0.259,-0.408 0.249,-0.421 0.23,-0.421C0.223,-0.421 0.215,-0.419 0.208,-0.415C0.2,-0.411 0.192,-0.402 0.184,-0.389C0.177,-0.378 0.171,-0.366 0.168,-0.355C0.164,-0.344 0.161,-0.333 0.16,-0.324L0.106,-0L-0.012,-0Z" style="fill-rule:nonzero;"/>
        </g>
    </g>
    <path d="M336.2,1565.03C336.2,1565.03 1564.17,1392.42 1721,1565.03" style="fill:rgb(235,235,235);stroke:rgb(0,116,232);stroke-width:200px;"/>
</svg>
